PathFileType	4	(X/Y/Z)	C:\Users\chris\Documents\GitHub\baseballds\vids\pitch1_Sports2D\pitch1_Sports2D_px_person00.trc
DataRate	CameraRate	NumFrames	NumMarkers	Units	OrigDataRate	OrigDataStartFrame	OrigNumFrames
30	30	8	22	m	30	96	154
Frame#	Time	Hip			RHip			RKnee			RAnkle			RBigToe			RSmallToe			RHeel			LHip			LKnee			LAnkle			LBigToe			LSmallToe			LHeel			Neck			Head			Nose			RShoulder			RElbow			RWrist			LShoulder			LElbow			LWrist		
		X1	Y1	Z1	X2	Y2	Z2	X3	Y3	Z3	X4	Y4	Z4	X5	Y5	Z5	X6	Y6	Z6	X7	Y7	Z7	X8	Y8	Z8	X9	Y9	Z9	X10	Y10	Z10	X11	Y11	Z11	X12	Y12	Z12	X13	Y13	Z13	X14	Y14	Z14	X15	Y15	Z15	X16	Y16	Z16	X17	Y17	Z17	X18	Y18	Z18	X19	Y19	Z19	X20	Y20	Z20	X21	Y21	Z21	X22	Y22	Z22
96	3.2	813.2673868173858	481.6130321031969	0.0	766.9826176018179	503.48338556920226	0.0	757.4855380655263	718.2324418543307	0.0	758.3423002287471	892.383767521346	0.0	762.6226089897076	959.277199532575	0.0	741.4591671153626	960.4542488730483	0.0	755.6878605884502	912.6950321785685	0.0	870.3020820342804	494.53102564449296	0.0	763.4804890523466	416.41785852466205	0.0	708.7055300767573	609.5132488477113	0.0	630.7290220911043	596.4960866007291	0.0	665.6694044414716	626.7972986919468	0.0	697.8338863562648	650.9702149310821	0.0	797.270128084145	249.80669515005332	0.0	816.463172913102	121.99287648262673	0.0	816.5434246945981	198.15612391543866	0.0	726.1301893408197	278.29524601180503	0.0	644.5378106529315	354.66464226666267	0.0	699.7885606742061	265.39785997976605	0.0	867.8842667165111	270.93350688534144	0.0	867.0337804208866	385.4361427760547	0.0	797.4736255371487	274.60209828044316	0.0
97	3.2333333333333334	814.872675736277	490.8549111448051	0.0	767.6402907578254	509.6036864756455	0.0	757.4878641340041	716.4527670182786	0.0	756.7013616340846	893.6500792314066	0.0	761.5957300274866	959.1772504682067	0.0	738.9042778551482	961.114619290863	0.0	757.068445581471	915.1481497285552	0.0	867.9807455246674	496.60080556978886	0.0	758.8665082843852	374.6729917380478	0.0	703.6258664695035	570.7497270117251	0.0	624.0244090025867	551.6254603397972	0.0	649.3033093411746	579.1349824198157	0.0	691.4135287845642	619.3988563263893	0.0	797.1735178615634	248.7121651946761	0.0	817.7518085286471	126.57051857625446	0.0	816.2398813489278	201.1358516406892	0.0	727.6018991167024	276.2477942861103	0.0	644.09674580335	347.36024780620346	0.0	698.0285388205792	256.4045841394806	0.0	868.7453299464446	270.19696980564385	0.0	869.3587038188398	380.4507962227415	0.0	798.7190864663971	265.08520549852665	0.0
98	3.2666666666666666	816.7609640852348	497.4358286370724	0.0	770.4415849977241	513.2184182465728	0.0	756.7851217198388	717.1246906864553	0.0	755.2613747451438	895.6386245643803	0.0	758.9281001411848	960.8655477132986	0.0	736.4898526456917	962.6266964197514	0.0	758.9157385516263	918.8269817582891	0.0	866.329901382597	495.36139369133605	0.0	757.2674637028965	346.05321145456105	0.0	700.5691986958449	539.5662635385186	0.0	620.6142286764483	514.4554307335012	0.0	636.4244237022926	536.9661769590032	0.0	685.7748685665047	590.6812601164063	0.0	797.0264641845445	249.9122901815133	0.0	816.3034313785054	133.4011790948995	0.0	814.0474863584997	204.87150587656612	0.0	728.207432308549	277.617828451705	0.0	644.1248187130691	343.0266684977967	0.0	697.0762711506931	250.25122083161565	0.0	869.5076892278626	270.9698655958675	0.0	872.6832729138047	376.4946610452556	0.0	801.1094036556924	259.06703589687373	0.0
99	3.3	819.3300428960381	500.19095974498305	0.0	774.7393516434395	514.179245688121	0.0	756.6670837930931	719.2077590300794	0.0	755.0352362915262	896.6467259210083	0.0	756.3126880531041	963.6800794699828	0.0	735.7774965326721	964.5360079378537	0.0	760.4824520985235	921.4191866816723	0.0	866.9681095966409	493.5975215507755	0.0	756.4352271161341	333.7935827494658	0.0	698.3943035792498	523.0029201157797	0.0	616.0227313415149	492.9934849691117	0.0	627.2303512263171	511.75222077585215	0.0	681.4084261946505	574.8400957482663	0.0	797.0254235738139	252.46319106288058	0.0	813.6989694232151	139.18065097241262	0.0	811.214770598114	207.4833124165532	0.0	728.3866527572478	279.4851339189614	0.0	644.4590670460391	340.1848476486474	0.0	698.2395363050684	247.0814892928495	0.0	869.6524117535223	271.3357111455431	0.0	873.9900380428983	372.05371818749586	0.0	803.9866431283489	256.29101597847284	0.0
100	3.3333333333333335	822.6372981993005	499.7584505965397	0.0	778.36046566894	513.2609340917144	0.0	757.1823160640743	721.3755580474766	0.0	755.5911485549602	895.9434776301057	0.0	755.4573981998572	965.9104940124168	0.0	735.8586745954142	966.0359885640024	0.0	761.0939384678381	920.9882232529575	0.0	870.1829692782794	493.00961876715604	0.0	755.8931562684672	332.70861714974916	0.0	698.4018783350427	520.9241783011611	0.0	612.0026081865304	491.5647113854955	0.0	622.4997724542746	509.61391934931873	0.0	682.131694311895	572.4555495399337	0.0	798.3862674944108	253.80539311364498	0.0	814.287528485893	140.0536045216699	0.0	812.6148431038773	207.7399133041658	0.0	729.7796453682812	278.43185673807204	0.0	646.042337354254	338.9913679795522	0.0	700.2298175232403	246.51766963017747	0.0	870.1558515026427	269.68049664214277	0.0	872.5645961288765	366.85616481447	0.0	805.6500630623736	255.31784624086572	0.0
101	3.3666666666666667	826.5971835996678	499.2029527991931	0.0	780.476659620605	513.1467122252742	0.0	758.2275540987004	723.429678854056	0.0	755.671630340066	895.5084977063159	0.0	756.0466952625284	967.0211761495739	0.0	734.949708787274	966.9909354548056	0.0	759.934745347389	918.6219042644775	0.0	874.944134189383	494.794686985504	0.0	754.7213129856395	338.07720789776965	0.0	701.349245405279	531.8370739463357	0.0	611.2202892188031	508.8254500110298	0.0	623.0492758113721	528.0031675175811	0.0	689.8997300310517	579.7124627528442	0.0	801.0895665292559	253.42607389151777	0.0	819.1012872028525	137.7639921334976	0.0	818.8739205640035	207.66741481366017	0.0	732.6822848752346	275.7161792040655	0.0	649.6429610271823	341.55693987353	0.0	701.3112465710751	247.99000363158876	0.0	872.3069588737551	268.03413321559157	0.0	871.0307199613428	363.26690692267914	0.0	805.0463860181184	256.40563578930363	0.0
102	3.4	831.1287889338975	501.0227457617738	0.0	782.8555335535148	516.0498559908087	0.0	759.9283195476828	726.1310316468456	0.0	754.8692351455666	897.1693134276488	0.0	755.690210172324	967.3433509868551	0.0	732.5591255416574	967.25000969334	0.0	757.2811690153895	917.7112576835166	0.0	880.1100829480117	499.3214288011415	0.0	750.9097401069741	351.11922846592415	0.0	706.7670900118842	554.9128794221622	0.0	614.0994344835597	541.7931807725892	0.0	630.5162312689291	561.9343448048814	0.0	702.9664687381703	595.1772814976238	0.0	803.0083105350229	253.74432122140303	0.0	823.9402469170925	136.91983983640998	0.0	824.5445018824689	209.82874819583796	0.0	734.9858878956715	275.56614099803636	0.0	654.4260177565776	349.25787859632703	0.0	702.1961774963621	253.36831232035908	0.0	874.9103885581651	268.9100950814284	0.0	871.965886990221	363.6693473371298	0.0	802.2288918888573	260.2080805374617	0.0
103	3.433333333333333	835.1439005660004	502.7609534993841	0.0	786.3298055392595	519.2707831414426	0.0	761.473134919717	729.3747162361933	0.0	753.9855980528231	899.5139264869894	0.0	752.5425186399326	966.6092132490866	0.0	729.7382787413803	966.0072874545172	0.0	755.177197050696	919.6687001137086	0.0	884.8343092119297	504.5315311092072	0.0	743.912986416148	375.72788087124485	0.0	712.7391313676007	587.151659582336	0.0	617.5343907972712	586.9830806532434	0.0	643.074759882915	607.2840568585542	0.0	716.7323820496326	618.6726651364465	0.0	803.1763709745962	256.6961416891675	0.0	825.9545250585982	137.66911448336205	0.0	826.8233359485016	213.57120590780625	0.0	735.8403760872471	279.36898611388403	0.0	659.8845345205452	361.2461918498853	0.0	704.1912784985598	265.81964208941775	0.0	875.6445897826499	271.63910638733455	0.0	876.6507970698826	368.56291271895043	0.0	798.2248584911795	267.3308780652158	0.0
